<?xml version="1.0" encoding="utf-8" ?>
<svg xmlns="http://www.w3.org/2000/svg" xmlns:xlink="http://www.w3.org/1999/xlink" width="1024" height="1024" viewBox="0 0 1024 1024">
  <path fill="#FE5D15" d="M363.411 470.86C364.974 471.327 392.062 513.649 394.756 518.282C380.807 528.317 362.472 539.235 347.79 549.143C346.109 548.127 319.276 507.151 316.404 502.157C321.314 498.439 329.088 493.664 334.363 490.217C344.119 483.874 353.802 477.422 363.411 470.86Z" />
  <path fill="#FE5D15" d="M660.127 471.249C663.819 472.706 682.896 485.774 687.284 488.728C692.043 491.932 703.817 499.241 708.093 502.472C705.3 505.678 702.081 511.009 699.554 514.591C691.821 525.552 684.702 538.121 676.695 548.756C675.015 549.073 662.45 540.132 660.303 538.699L629.187 518.087C631.138 514.479 637.576 505.261 640.285 501.208C646.629 491.715 653.437 480.257 660.127 471.249Z" />
  <path fill="#FE5D15" d="M563.379 664.24C565.789 664.028 568.256 663.873 570.674 663.694C571.549 667.566 572.439 677.105 572.94 681.323C574.417 693.961 575.83 706.608 577.177 719.261L528.367 724.287C526.141 724.673 523.388 724.908 521.105 725.165C518.625 707.027 517.032 687.79 515.369 669.519C520.82 668.6 527.566 668.156 533.157 667.585C543.243 666.577 553.317 665.462 563.379 664.24Z" />
  <path fill="#FE5D15" d="M478.314 546.239C494.641 547.091 517.015 546.375 533.956 546.527C533.743 564.564 533.592 584.451 534.09 602.423C515.409 602.375 496.727 602.43 478.047 602.586C478.843 590.265 477.467 574.527 477.915 561.979C478.074 557.542 477.537 550.417 478.314 546.239Z" />
  <path fill="#FE5D15" d="M452.9 663.426C471.561 665.457 489.866 667.706 508.593 669.553C508.073 685.474 504.783 708.634 503.115 725.138C495.937 724.761 486.178 723.171 478.799 722.285C468.32 721.074 457.82 720.052 447.305 719.219C448.171 702.007 451.562 681.372 452.9 663.426Z" />
  <path fill="#FE5D15" d="M279.394 399.214C280.207 400.2 288.49 442.862 289.489 447.903C274.77 451.583 255.335 455.316 240.468 457.758C239.663 456.564 231.019 413.372 230.245 408.835C245.041 406.962 264.106 401.872 279.394 399.214Z" />
  <path fill="#FE5D15" d="M206.833 292.946C222.428 296.893 239.791 302.781 255.728 307.127C250.753 323.22 246.604 339.145 242.176 355.377C228.125 350.986 207.743 344.383 193.62 341.144C197.229 325.288 203.064 309.054 206.833 292.946Z" />
  <path fill="#FE5D15" d="M815.734 293.508L816.825 293.656C819.29 297.532 828.795 334.321 830.57 340.928C814.878 345.47 799.223 350.14 783.608 354.936C782.794 355.295 783.232 355.25 782.286 354.973C781.263 352.065 780.374 349.051 779.599 346.067C776.207 333.021 771.997 320.091 768.602 307.063L815.734 293.508Z" />
  <path fill="#FE5D15" d="M744.779 399.709C747.348 399.862 749.848 400.484 752.372 400.955C766.177 403.531 779.825 406.984 793.688 409.238C790.5 425.321 786.856 441.645 783.958 457.737C778.766 457.277 769.873 455.262 764.542 454.176C754.663 452.147 744.772 450.174 734.87 448.256C736.968 433.512 741.488 414.488 744.779 399.709Z" />
  <path fill="#FE5D15" d="M670.56 619.927C672.109 621.223 690.071 659.997 691.971 664.471C676.722 671.326 662.594 678.752 647.667 685.579L647.107 685.43C646.377 684.747 627.228 644.946 625.871 641.646C637.914 635.092 657.976 625.55 670.56 619.927Z" />
  <path fill="#FE5D15" d="M353.366 620.044C356.608 621.198 363.947 624.909 367.303 626.489C377.742 631.291 388.061 636.352 398.249 641.667C392.489 655.603 383.374 671.297 377.08 685.866C364.341 678.917 345.208 670.309 331.996 664.43C338.883 649.934 346.001 634.217 353.366 620.044Z" />
  <path fill="#FE5D15" d="M277.358 560.306C279.319 561.555 281.069 563.134 282.797 564.693C292.894 573.806 303.875 582.328 313.341 592.09C310.324 596.098 304.8 602.082 301.37 606.022C295.229 613.185 289.006 620.276 282.702 627.296C279.209 624.813 273.629 619.714 270.248 616.809L246.13 596.016C248.839 591.95 255.375 584.845 258.854 580.903C264.795 574.172 271.115 566.608 277.358 560.306Z" />
  <path fill="#FE5D15" d="M746.467 560.365C748.921 561.028 774.68 591.914 778.178 596.225C766.22 605.905 753.439 616.955 741.892 627.166C739.83 626.108 712.574 594.911 711.463 592.007C713.635 588.453 741.437 564.566 746.467 560.365Z" />
  <path fill="#FE5D15" d="M415.153 653.513C429.666 651.925 442.71 662.423 444.262 676.94C445.813 691.457 435.282 704.475 420.761 705.99C406.292 707.5 393.331 697.014 391.785 682.549C390.239 668.084 400.691 655.096 415.153 653.513Z" />
  <path fill="#FE5D15" d="M603.26 653.702C617.796 652.089 630.867 662.615 632.391 677.161C633.914 691.706 623.308 704.712 608.754 706.147C594.325 707.569 581.455 697.074 579.945 682.654C578.434 668.234 588.85 655.3 603.26 653.702Z" />
  <path fill="#FE5D15" d="M314.058 396.2C327.496 394.217 339.996 403.504 341.976 416.942C343.956 430.38 334.665 442.878 321.227 444.854C307.793 446.83 295.301 437.543 293.322 424.111C291.343 410.678 300.626 398.183 314.058 396.2Z" />
  <path fill="#FE5D15" d="M704.118 396.218C717.576 394.985 729.495 404.872 730.767 418.326C732.04 431.78 722.187 443.727 708.737 445.039C695.231 446.357 683.224 436.454 681.946 422.945C680.668 409.436 690.605 397.457 704.118 396.218Z" />
  <path fill="#FE5D15" d="M202.658 353.649C216.134 351.844 228.5 361.367 230.196 374.858C231.893 388.349 222.27 400.637 208.766 402.225C195.415 403.795 183.296 394.305 181.619 380.967C179.941 367.629 189.334 355.434 202.658 353.649Z" />
  <path fill="#FE5D15" d="M715.218 520.646C728.617 519.945 740.079 530.168 740.909 543.559C741.739 556.95 731.628 568.511 718.245 569.471C704.679 570.443 692.924 560.162 692.082 546.586C691.241 533.011 701.635 521.356 715.218 520.646Z" />
  <path fill="#FE5D15" d="M304.449 520.768C317.837 518.991 330.126 528.412 331.888 541.802C333.649 555.192 324.214 567.471 310.823 569.217C297.453 570.961 285.197 561.544 283.438 548.176C281.68 534.807 291.083 522.541 304.449 520.768Z" />
  <path fill="#FE5D15" d="M813.629 353.972C826.931 351.512 839.696 360.342 842.087 373.657C844.477 386.972 835.58 399.691 822.252 402.011C809.024 404.313 796.42 395.497 794.048 382.281C791.675 369.064 800.425 356.414 813.629 353.972Z" />
  <path fill="#FE5D15" d="M440.043 587.996C440.802 588.778 450.661 647.515 451.668 652.89C440.297 648.798 428.65 644.217 417.264 639.991C408.398 636.741 399.584 633.351 390.825 629.823C400.881 619.734 413.816 610.498 424.504 600.924C429.242 596.679 435.036 591.817 440.043 587.996Z" />
  <path fill="#FE5D15" d="M417.956 520.459C418.147 520.657 418.338 520.855 418.529 521.054C418.032 537.872 417.768 569.561 417.608 585.18C413.959 583.569 408.108 579.924 404.529 577.824L382.763 565.035L361.196 552.291C363.827 550.55 366.974 548.811 369.767 547.274C385.837 538.431 401.834 529.182 417.956 520.459Z" />
  <path fill="#FE5D15" d="M564.876 560.615C578.243 559.417 590.051 569.277 591.258 582.642C592.465 596.008 582.613 607.823 569.248 609.039C555.871 610.256 544.042 600.392 542.834 587.014C541.626 573.636 551.497 561.814 564.876 560.615Z" />
  <path fill="#FE5D15" d="M480.074 609.734C493.344 607.35 506.014 616.239 508.288 629.529C510.561 642.818 501.567 655.414 488.259 657.577C475.107 659.714 462.691 650.848 460.443 637.714C458.196 624.58 466.959 612.091 480.074 609.734Z" />
  <path fill="#FE5D15" d="M605.434 519.919C615.415 525.119 626.427 531.822 636.485 537.225C642.354 540.378 657.929 548.748 662.229 552.277C656.274 556.274 648.034 560.806 641.724 564.518C631.479 569.946 616.802 579.337 606.51 585.436C606.551 565.587 606.8 539.234 605.434 519.919Z" />
  <path fill="#FE5D15" d="M779.545 484.88C788.43 486.499 809.332 497.204 820.23 500.07C814.927 511.491 808.956 527.842 804.022 539.899C801.531 539.526 791.577 535.319 788.604 534.114C780.339 530.762 772.655 527.595 764.129 524.774C768.464 512.481 774.63 496.915 779.545 484.88Z" />
  <path fill="#FE5D15" d="M243.529 484.446L244.579 484.912C249.08 494.841 256.278 514.201 259.858 524.549C247.672 529.34 233.311 535.432 221.12 539.605C220.971 539.579 220.81 539.594 220.674 539.528C218.213 538.344 206.383 505.016 204.591 500.176C214.867 496.89 233.318 488.858 243.529 484.446Z" />
  <path fill="#FE5D15" d="M265.883 309.111C269.212 310.65 282.165 319.53 285.581 321.91C296.245 329.336 308.681 336.977 318.937 344.78C312.133 348.391 305.27 351.888 298.35 355.271C286.077 361.489 274.123 366.856 261.903 372.797C262.863 351.547 264.19 330.315 265.883 309.111Z" />
  <path fill="#FE5D15" d="M757.598 309.499L757.94 309.783C758.551 311.49 759.081 323.735 759.216 326.274C760.039 341.634 761.571 357.359 762.016 372.691C752.558 368.861 737.449 361.036 727.79 356.423C720.011 352.781 712.373 348.848 704.891 344.63C722.096 333.164 740.038 320.225 757.598 309.499Z" />
  <path fill="#FE5D15" d="M551.844 613.708C552.771 613.526 556.248 613.474 557.383 613.431C558.11 626.032 559.124 642.419 560.712 654.815C549.763 655.982 536.36 657.899 525.624 658.473C523.344 658.51 521.5 658.73 519.248 658.973C517.236 649.231 516.494 627.801 515.382 616.69C527.511 616.171 539.756 614.902 551.844 613.708Z" />
  <path fill="#FE5D15" d="M431.889 534.266C445.133 538.333 459.412 541.657 472.927 544.805C469.371 557.623 466.169 571.827 462.985 584.844C454.796 584.055 431.785 577.348 422.263 575.17C425.798 562.383 428.234 547.569 431.889 534.266Z" />
  <path fill="#FE5D15" d="M200.68 409.754C212.175 407.563 223.275 415.089 225.493 426.579C227.711 438.069 220.21 449.186 208.725 451.431C197.203 453.682 186.042 446.152 183.817 434.624C181.591 423.097 189.147 411.953 200.68 409.754Z" />
  <path fill="#FE5D15" d="M817.624 409.633C829.234 408.658 839.443 417.265 840.445 428.874C841.446 440.483 832.861 450.711 821.255 451.739C809.612 452.769 799.343 444.151 798.339 432.505C797.334 420.86 805.975 410.611 817.624 409.633Z" />
  <path fill="#FE5D15" d="M380.378 580.088C391.089 579.531 400.245 587.714 400.89 598.419C401.536 609.124 393.43 618.348 382.731 619.083C371.904 619.826 362.547 611.603 361.894 600.771C361.241 589.939 369.541 580.651 380.378 580.088Z" />
  <path fill="#FE5D15" d="M340.936 554.846C349.059 561.382 359.939 569.143 367.44 575.985C361.294 584.389 353.197 594.279 346.477 602.359C339.417 597.549 326.836 587.04 319.961 581.491C325.897 573.257 334.402 562.737 340.936 554.846Z" />
  <path fill="#FE5D15" d="M682.502 555.375C685.521 556.25 701.339 577.86 703.633 581.658C695.231 588.333 686.464 595.783 677.862 602.068C675.598 600.858 658.725 578.941 656.72 575.73C665.034 568.946 674.03 562.194 682.502 555.375Z" />
  <path fill="#FE5D15" d="M310.083 454.469L310.969 454.813C313.875 459.985 322.2 479.207 324.247 484.942C315.621 489.304 303.077 495.056 294.178 498.718C292.741 496.624 280.987 470.855 279.98 468.055L310.083 454.469Z" />
  <path fill="#FE5D15" d="M713.289 454.658C722.04 457.78 735.241 464.384 744.127 468.406C739.879 478.476 734.624 488.31 730.581 498.427C725.029 497.087 705.851 487.775 699.729 484.939C703.653 475.345 708.918 464.122 713.289 454.658Z" />
  <path fill="#FE5D15" d="M772.21 536.734C782.381 534.899 792.128 541.607 794.047 551.762C795.967 561.917 789.34 571.72 779.201 573.723C768.943 575.751 758.998 569.028 757.056 558.753C755.115 548.478 761.92 538.59 772.21 536.734Z" />
  <path fill="#FE5D15" d="M247.559 536.42C257.894 535.828 266.755 543.72 267.359 554.054C267.963 564.388 260.083 573.259 249.749 573.876C239.398 574.494 230.508 566.597 229.903 556.244C229.297 545.892 237.206 537.012 247.559 536.42Z" />
  <path fill="#FE5D15" d="M629.985 581.935C631.035 583.259 633.326 625.913 633.645 631.546L607.288 619.081L589.419 610.251C597.803 603.451 608.041 597.484 616.72 590.899C620.732 587.854 625.689 584.429 629.985 581.935Z" />
  <path fill="#FE5D15" d="M720.326 612.715L722.015 612.551L722.556 613.017C721.638 616.602 718.143 624.166 716.569 627.818L704.898 654.861C701.436 650.638 697.848 645.552 694.57 641.121C688.924 633.143 681.648 623.695 676.616 615.565C689.746 615.433 706.856 613.656 720.326 612.715Z" />
  <path fill="#FE5D15" d="M301.14 612.344C315.161 613.454 333.243 614.235 346.841 616.105C342.593 622.885 336.117 631.349 331.37 638.224C327.532 643.846 323.333 649.515 319.333 655.051C313.458 640.736 306.786 626.703 301.14 612.344Z" />
  <path fill="#FE5D15" d="M576.846 612.741C580.787 615.067 603.983 636.95 608.962 641.61C604.836 643.52 598.378 645.311 593.883 646.702C586.614 648.571 574.668 652.105 567.745 654.59C571.203 642.366 574.183 625.347 576.846 612.741Z" />
  <path fill="#FE5D15" d="M344.461 442.445L345.032 442.529C346.533 443.715 354.696 463.899 356.197 467.465C348.387 471.48 339.581 475.309 331.54 478.981C329.86 477.017 321.551 457.364 319.977 453.807C328.742 450.023 335.852 446.715 344.461 442.445Z" />
  <path fill="#FE5D15" d="M678.748 442.77C683.842 444.344 697.921 451.251 704.175 453.732C701.287 461.057 696.26 471.061 692.803 478.34C690.712 478.716 671.329 469.063 667.936 467.414C670.631 460.16 675.497 450.259 678.748 442.77Z" />
  <path fill="#FE5D15" d="M315.831 361.201C323.808 359.111 331.964 363.903 334.02 371.889C336.076 379.874 331.249 388.01 323.255 390.032C315.309 392.042 307.233 387.25 305.189 379.313C303.145 371.375 307.902 363.279 315.831 361.201Z" />
  <path fill="#FE5D15" d="M700.892 361.319C708.862 359.354 716.908 364.258 718.814 372.242C720.72 380.227 715.757 388.237 707.759 390.084C699.843 391.912 691.935 387.012 690.048 379.109C688.162 371.207 693.004 363.263 700.892 361.319Z" />
  <path fill="#FE5D15" d="M583.464 532.266C588.614 531.08 594.005 532.752 597.579 536.645C601.153 540.538 602.36 546.051 600.739 551.081C599.119 556.111 594.92 559.883 589.746 560.957C581.865 562.594 574.135 557.581 572.414 549.718C570.692 541.856 575.621 534.072 583.464 532.266Z" />
  <path fill="#FE5D15" d="M193.841 457.291C206.473 459.18 218.733 461.376 231.439 462.968C227.124 469.111 222.653 475.144 218.031 481.06C215.052 485.168 211.114 489.912 207.958 494.006C204.745 487.965 196.445 464.605 193.841 457.291Z" />
  <path fill="#FE5D15" d="M829.391 457.846L829.535 458.215C829.398 460.99 818.165 489.454 816.395 493.332C813.183 490.189 808.942 484.774 805.966 481.194C801.311 475.217 796.774 469.151 792.357 462.996C802.58 461.363 819.552 458.663 829.391 457.846Z" />
  <path fill="#FE5D15" d="M272.766 489.661C275.99 491.282 299.751 510.532 302.695 513.535C298.542 515.452 294.137 517.128 289.878 518.821L267.238 527.73C269.161 515.193 270.718 502.014 272.766 489.661Z" />
  <path fill="#FE5D15" d="M751.265 489.851C753.567 501.471 755.46 516.285 757.092 528.094C750.649 526.078 743.229 522.12 736.545 519.629C731.562 517.375 726.526 515.53 721.416 513.594C726.904 507.863 743.946 496.112 751.265 489.851Z" />
  <path fill="#FE5D15" d="M247.147 364.339C254.566 371.056 265.528 385.345 271.38 393.489C266.492 394.572 260.159 395.502 255.12 396.369C248.233 397.584 241.334 398.726 234.424 399.794C237.75 389.381 243.179 374.608 247.147 364.339Z" />
  <path fill="#FE5D15" d="M776.507 364.448C778.285 366.392 787.923 395.486 789.255 399.797C783.603 399.051 776.112 397.407 770.379 396.307L752.229 393.191C760.324 384.349 768.074 373.673 776.507 364.448Z" />
  <path fill="#FE5D15" d="M748.7 458.159C758.619 460.566 772.77 462.761 783.156 464.823C779.196 469.624 774.738 474.605 770.648 479.341C766.999 483.508 763.144 488.037 759.925 492.518C755.93 482.047 752.195 469.022 748.7 458.159Z" />
  <path fill="#FE5D15" d="M271.764 459.118C273.427 458.972 274.12 458.709 275.249 459.477C271.538 470.456 267.983 480.754 264.657 491.881C261.277 488.641 259.116 486.077 256.131 482.524C251.678 477.261 244.955 470.121 241.222 464.78C251.382 462.78 261.563 460.892 271.764 459.118Z" />
  <path fill="#FE5D15" d="M727.184 370.242C733.076 370.992 742.697 373.249 748.732 374.542C747.37 381.384 746.107 389 744.349 395.662C737.553 394.785 729.688 393.203 722.648 392.163C724.445 384.72 725.775 377.78 727.184 370.242Z" />
  <path fill="#FE5D15" d="M294.823 370.628C296.111 370.36 295.639 370.316 296.87 370.742C298.142 378.517 299.282 384.237 301.124 391.89L282.115 395.417C280.985 395.565 281.051 395.605 279.985 395.234C278.172 392.436 276.158 378.884 275.273 374.339C281.607 372.992 288.426 371.829 294.823 370.628Z" />
  <path fill="#FE5D15" d="M457.169 589.674C463.231 587.912 469.579 591.363 471.397 597.408C473.215 603.452 469.824 609.833 463.796 611.708C457.689 613.607 451.205 610.16 449.362 604.035C447.52 597.91 451.027 591.459 457.169 589.674Z" />
  <path fill="#FE5D15" d="M644.532 593.701C652.29 597.345 662.164 603.356 669.783 607.712L660.469 613.954C655.11 617.082 649.8 620.293 644.54 623.583C644.752 613.898 644.507 603.475 644.532 593.701Z" />
  <path fill="#FE5D15" d="M543.907 539.348C547.774 541.222 561.454 550.871 564.686 553.702L555.148 557.965C550.561 560.142 546.412 562.611 542.027 565.148C542.872 556.565 543.498 547.962 543.907 539.348Z" />
</svg>